<?xml version="1.0" encoding="utf-8"?>
<!-- Generator: Adobe Illustrator 27.5.0, SVG Export Plug-In . SVG Version: 6.00 Build 0)  -->
<svg version="1.1" id="Design" xmlns="http://www.w3.org/2000/svg" xmlns:xlink="http://www.w3.org/1999/xlink" x="0px" y="0px"
	 viewBox="0 0 2000 2000" style="enable-background:new 0 0 2000 2000;" xml:space="preserve">
<rect style="fill:#FFFFFF;" width="2000" height="2000"/>
<g>
	<path style="fill:#594F4F;" d="M579.818,2000c-91.876,0-183.752,0-275.628,0c-1.616-11.501-1.386-23.142-0.114-34.523
		c4.645-41.56,9.48-83.108,12.174-124.838c2.24-34.714,4.635-69.423,7.088-104.118c2.091-29.578,5.361-59.106,7.424-88.684
		c4.088-58.589,12.651-116.457,24.966-173.821c8.122-37.835,17.669-75.184,35.311-110.014c13.432-26.517,32.21-48.357,55.292-66.862
		c26.893-21.56,56.703-37.447,89.588-47.699c46.933-14.632,93.207-31.342,140.562-44.642c20.542-5.769,41.194-11.129,61.351-18.234
		c14.557-5.131,28.583-11.419,42.483-18.048c2.194-1.046,4.311-2.284,6.642-2.993c1.744-0.53,3.713-1.554,5.263,0.168
		c1.472,1.635,0.759,3.656,0.026,5.361c-3.647,8.485-5.799,17.367-7.5,26.408c-3.884,20.655-1.113,41.05,3.53,61.057
		c6.599,28.433,11.553,57.188,17.891,85.663c3.452,15.508,7.809,19.191,23.775,19.652c11.99,0.346,23.65-2.15,35.337-4.196
		c22.039-3.858,43.541-10.698,66.127-11.567c6.544-0.252,12.818-2.151,18.166-6.195c3.17-2.398,5.91-2.21,8.449,0.791
		c8.013,9.471,16.954,18.258,22.788,29.38c8.229,15.688,6.701,32.456-5.693,45.037c-47.686,48.407-73.168,109.532-98.717,170.65
		c-5.867,14.034-3.599,28.693-2.078,43.19c6.153,58.637,16.685,116.43,30.694,173.751c9.093,37.206,14.456,75.278,17.73,113.557
		c2.045,23.913,3.822,47.849,5.971,71.753c0.315,3.507,0.665,7.057-1.932,10.019c-112.413,0-224.826,0-337.239,0
		c-2.574-2.911-2.494-6.516-2.327-9.997c1.214-25.334-2.951-50.067-8.12-74.702c-8.046-38.343-15.731-76.764-18.839-115.89
		c-1.644-20.703-3.25-41.406-4.058-62.19c-1.939-49.868-2.625-99.907-14.623-148.811c-4.436-18.082-10.361-35.595-18.873-52.151
		c12.587,28.682,19.252,58.936,23.583,89.78c4.586,32.657,6.102,65.541,6.723,98.478c1.02,54.076,5.313,107.822,15.889,160.965
		c5.743,28.859,12.526,57.567,14.349,87.062C583.825,1981.844,585.865,1991.467,579.818,2000z"/>
	<path style="fill:#594F4F;" d="M1435.887,2000c-98.902,0-197.804,0-296.706,0c-3.087-3.609-1.75-7.656-1.115-11.612
		c7.57-47.208,17.009-94.064,26.172-140.979c12.37-63.339,23.129-126.961,32.752-190.786c4.631-30.716,12.892-60.747,19.807-91.015
		c7.409-32.432,10.207-65.027,6.037-98.072c-2.916-23.108-12.983-43.94-21.84-65.071c-6.701-15.987-13.385-31.784-14.76-49.392
		c-1.468-18.796,3.498-35.678,13.467-51.354c1.831-2.88,4.552-3.186,7.774-3.016c18.345,0.97,32.494,10.411,45.863,21.876
		c11.27,9.666,21.246,20.798,33.325,29.509c3.947,2.847,8.345,8.285,13.407,4.342c4.642-3.616,0.754-9.071-0.886-13.424
		c-8.134-21.588-21.407-40.558-31.451-61.195c-9.854-20.248-16.258-41.743-24.037-62.744c-0.563-1.52-0.805-3.138-0.739-4.784
		c0.224-1.889,0.833-3.519,2.857-4.172c4.212-0.099,6.954,2.805,9.762,5.182c30.659,25.951,65.21,45.336,102.899,58.624
		c35.748,12.603,68.073,31.335,99.809,51.455c25.995,16.48,52.064,32.842,78.609,48.43c11.606,6.816,21.141,15.655,28.403,27.121
		c14.67,23.163,26.085,47.849,35.065,73.676c18.834,54.164,31.937,109.91,44.637,165.712
		c12.341,54.223,23.382,108.726,32.021,163.702c7.289,46.385,14.44,92.789,18.375,139.585c1.462,17.381,2.318,34.939,0.399,52.432
		c-0.24,2.188-0.536,4.287-2.113,5.969c-83.769,0-167.539,0-251.308,0c-4.617-7.954-2.569-16.955-3.229-25.338
		c-1.627-20.678-3.473-41.355-4.184-62.137c-1.012-29.596,4.837-57.518,17.248-84.07c16.324-34.923,24.261-72.005,29.784-109.794
		c2.025-13.853,4.955-27.551,6.821-41.433c-5.637,27.077-10.195,54.368-15.62,81.491c-4.966,24.828-13.724,48.298-24.363,71.08
		c-16.279,34.86-19.695,71.361-16.058,109.154c1.781,18.507,3.306,37.066,4.195,55.656
		C1437.059,1996.509,1437.236,1998.401,1435.887,2000z"/>
	<path style="fill:#EDE9EA;" d="M1131.075,2000c-65.935,0-131.869,0-197.804,0c-2.196-2.411-2.166-5.413-2.253-8.394
		c-2.162-74.252-13.186-147.215-30.96-219.3c-11.068-44.89-18.136-90.527-22.782-136.542c-1.678-16.621-5.229-33.12,1.529-49.535
		c7.297-17.725,13.65-35.847,23.232-52.565c9.941-17.344,18.523-35.416,28.293-52.86c12.353-22.056,28.268-41.273,44.889-60.218
		c17.803-20.292,17.027-39.525,0.207-60.56c-3.379-4.226-6.602-8.699-10.613-12.22c-10.896-9.564-13.411-22.271-14.523-35.663
		c-0.172-2.074-1.018-4.579,1.297-5.856c1.804-0.996,3.644,0.333,5.29,1.236c38.284,21.012,79.945,28.032,122.908,30.576
		c16.691,0.988,33.46,2.1,50.088,2.218c16.308,0.116,33.611,2.276,48.615-8.219c5.581-3.903,7.516-2.401,6.964,4.735
		c-1.597,20.663,1.919,40.3,10.534,59.166c3.923,8.59,6.741,17.684,10.664,26.279c17.992,39.41,19.693,80.312,11.547,122.149
		c-5.009,25.725-11.004,51.234-17.188,76.698c-7.152,29.452-10.712,59.521-15.665,89.36c-8.801,53.022-18.018,105.98-29.288,158.554
		c-8.552,39.894-16.129,79.962-21.278,120.457C1134.302,1993.265,1133.804,1997.025,1131.075,2000z"/>
	<path style="fill:#010001;" d="M1131.075,2000c4.937-42.386,12.422-84.355,21.593-125.998
		c7.838-35.589,13.552-71.563,20.643-107.278c7.729-38.932,11.874-78.445,19.47-117.362c5.887-30.164,13.34-60.023,20.103-90.016
		c4.703-20.859,7.822-41.873,7.546-63.359c-0.259-20.166-3.154-39.782-10.437-58.645c-4.759-12.327-9.085-24.865-14.619-36.84
		c-10.193-22.058-15.135-44.798-11.274-69.095c-0.688,0.052-1.054-0.035-1.213,0.108c-11.075,9.921-24.49,11.227-38.571,11.11
		c-31.333-0.26-62.639-1.123-93.833-4.075c-16.159-1.529-31.557-7.062-47.368-10.475c-0.791-0.171-1.557-0.454-2.347-0.626
		c-17.479-3.822-34.727-8.189-49.035-21.694c1.07,8.466,2.855,15.495,3.125,22.755c0.157,4.211,2.733,7.434,5.49,10.544
		c6.268,7.072,12.308,14.345,18.473,21.508c17.708,20.573,12.989,43.984,0.441,59.228c-2.916,3.543-5.711,7.253-9.04,10.378
		c-15.776,14.812-27.046,32.925-37.543,51.503c-11.147,19.727-21.709,39.787-32.334,59.804
		c-8.111,15.282-13.759,31.637-20.127,47.671c-4.999,12.587-2.972,25.528-1.712,38.426c4.096,41.939,10.762,83.494,19.25,124.742
		c3.912,19.009,9.272,37.72,13.213,56.725c8.937,43.096,15.967,86.49,19.286,130.441c1.32,17.491,4.112,34.876,3.614,52.489
		c-0.076,2.681-0.391,5.354-0.596,8.031c-2.162,0-4.324,0-6.485,0c-1.703-23.919-3.265-47.849-5.148-71.754
		c-2.073-26.321-6.394-52.347-10.306-78.445c-4.524-30.182-12.244-59.596-19.09-89.242c-4.664-20.199-7.873-40.688-11.038-61.181
		c-2.465-15.962-5.387-31.853-7.062-47.93c-0.809-7.766-1.682-15.527-2.34-23.307c-0.363-4.298-0.717-8.575-1.278-12.864
		c-1.396-10.667,0.919-20.953,4.624-30.893c8.116-21.773,18.091-42.722,28.39-63.532c12.696-25.655,25.904-50.986,42.828-74.208
		c5.102-7,10.606-13.613,16.589-19.85c2.992-3.119,6.061-6.164,9.015-9.319c14.415-15.395,15.718-34.08,3.126-50.717
		c-6.647-8.783-13.925-17.089-21.078-25.806c-7.632,8.366-17.824,9.731-27.575,10.069c-13.656,0.473-26.6,3.865-39.777,6.583
		c-18.709,3.859-37.323,8.52-56.627,8.448c-1.89-0.007-3.797,0.045-5.666-0.179c-12.602-1.506-16.509-5.176-19.567-17.698
		c-6.39-26.169-9.98-52.919-16.574-79.049c-4.426-17.54-7.427-35.313-7.326-53.501c0.089-16.126,3.248-31.573,9.87-46.297
		c0.417-0.927,1.252-1.793,0.355-3.477c-7.863,3.658-15.846,7.24-23.715,11.056c-20.727,10.051-42.555,17.096-64.707,23.002
		c-44.586,11.888-88.359,26.328-132.131,40.827c-20.733,6.868-41.757,12.829-61.972,21.235
		c-24.939,10.37-46.867,25.394-67.52,42.556c-17.427,14.481-31.879,31.449-43.079,51.081
		c-12.097,21.203-20.663,43.915-27.294,67.356c-11.527,40.749-19.578,82.236-26.237,124.024
		c-3.349,21.016-5.929,42.108-8.091,63.277c-1.971,19.304-3.291,38.649-4.901,57.977c-2.258,27.116-4.876,54.197-6.572,81.364
		c-0.956,15.325-2.117,30.643-3.135,45.969c-1.659,24.993-4.433,49.917-5.824,74.921c-1.094,19.669-3.301,39.212-5.584,58.725
		c-2.446,20.904-4.852,41.753-4.843,62.829c0.001,2.649-0.87,5.299-1.337,7.949c-1.621,0-3.243,0-4.864,0
		c-1.438-8.621-0.337-17.271,0.275-25.827c2.119-29.619,4.801-59.198,7.17-88.8c1.917-23.961,3.718-47.931,5.522-71.901
		c2.98-39.587,5.413-79.213,9.2-118.741c2.524-26.343,4.513-52.737,6.815-79.102c3.691-42.271,10.414-84.095,18.814-125.659
		c6.201-30.684,13.236-61.162,23.605-90.766c5.449-15.559,11.932-30.658,19.967-45.075c9.812-17.605,22.089-33.264,36.907-46.927
		c28.964-26.706,61.629-47.33,99.315-59.323c50.363-16.027,100.251-33.565,151.185-47.785c22.592-6.307,45.391-11.926,67.304-20.47
		c14.85-5.79,29.262-12.497,43.202-20.237c9.359-5.196,17.291-11.966,23.636-20.591c0.48-0.652,1.034-1.255,1.471-1.934
		c15.629-24.272,36.928-41.99,62.702-54.668c5.033-2.476,11.627-4.545,13.844-9.191c2.208-4.63,0.707-11.107,0.56-16.767
		c-0.389-14.956-2.659-29.432-9.636-43.018c-5.676-11.052-10.017-22.67-9.878-36.151c-11.03,5.221-18.732,0.305-25.719-6.791
		c-6.488-6.589-11.742-14.12-16.167-22.201c-17.614-32.164-28.559-66.299-30.339-103.137c-0.433-8.95-0.052-17.838,1.842-26.589
		c1.277-5.9,4.162-11.071,8.466-15.384c-2.173-5.479-3.645-11.012-3.02-17.061c0.922-8.931,3.559-17.449,5.93-26.009
		c6.593-23.804,9.464-48.111,10.871-72.693c1.111-19.401,3.079-38.726,7.358-57.749c2.147-9.546,5.464-18.629,10.166-27.191
		c7.281-13.257,13.816-26.87,19.457-40.897c8.414-20.924,22.753-36.303,42.516-47.058c21.549-11.726,43.905-20.478,68.665-22.497
		c14.357-1.171,27.945-5.773,41.146-11.487c20.595-8.915,41.897-15.737,63.697-20.975c15.427-3.707,31.002-3.915,46.624-1.139
		c8.434,1.499,16.074,4.922,22.479,10.496c10.055,8.751,21.703,13.9,34.525,16.896c11.632,2.718,22.601,7.231,32.995,13.08
		c11.288,6.352,22.531,12.787,33.706,19.336c12.577,7.371,22.739,17.276,30.454,29.678c9.125,14.669,18.451,29.217,27.405,43.989
		c10.899,17.982,18.056,37.357,20.56,58.332c1.428,11.961,1.024,23.729-3.979,34.952c-2.721,6.102-3.097,12.404-2.549,19.007
		c1.139,13.731,5.318,26.146,12.806,37.871c13.751,21.529,17.382,45.617,15.503,70.7c-0.724,9.662-3.879,18.015-14.511,21.042
		c5.543,14.161,3.225,28.112,0.726,41.901c-5.913,32.629-17.753,63.242-32.558,92.783c-3.747,7.476-7.386,15.013-11.384,22.354
		c-2.802,5.145-6.56,9.473-13.275,8.797c-2.565-0.258-3.096,1.186-3.911,3.039c-1.299,2.953-2.587,6.034-4.53,8.561
		c-9.498,12.359-15.72,26.305-20.934,40.868c-4.111,11.483-10.396,21.915-17.115,32.065c-9.119,13.775-16.373,28.497-22.848,43.681
		c-2.361,5.536-1.678,9.955,0.636,15.24c15.358,35.082,40.625,61.386,71.974,82.45c26.776,17.991,55.113,32.9,85.629,43.539
		c24.043,8.382,46.765,19.481,68.513,32.731c36.656,22.332,72.181,46.47,109.25,68.138c12.157,7.107,21.324,17.226,28.61,29.219
		c18.185,29.934,31.65,61.92,41.701,95.391c19.41,64.636,34.766,130.27,48.712,196.275c12.393,58.655,21.633,117.827,30.174,177.118
		c4.349,30.194,8.001,60.496,9.605,90.994c0.398,7.56,0.214,15.118-0.27,22.679c-0.396,6.186-0.497,12.392-0.729,18.588
		c-2.162,0-4.324,0-6.485,0c0.444-8.345,1.288-16.809,0.948-25.022c-0.511-12.359-0.291-24.795-1.874-37.135
		c-1.575-12.282-2.412-24.658-3.899-36.953c-2.165-17.906-4.351-35.818-7.023-53.653c-3.31-22.092-7.27-44.085-10.686-66.162
		c-4.244-27.42-9.627-54.62-15.248-81.779c-10.483-50.654-21.878-101.097-35.165-151.096c-8.727-32.839-17.597-65.654-30.891-97.034
		c-7.904-18.656-16.787-36.825-28.032-53.763c-5.933-8.938-13.422-16.315-22.619-21.663
		c-39.903-23.203-78.342-48.779-117.927-72.498c-18.385-11.016-37.808-19.645-57.88-26.929
		c-36.267-13.161-70.17-30.687-100.749-54.36c-5.54-4.289-10.848-8.878-16.264-13.328c-0.918-0.143-1.53-1.048-2.52-1.014
		c0.068,1.538-0.468,3.161,0.649,4.55c11.138,35.644,24.937,70.108,44.36,102.185c5.863,9.683,10.84,19.922,14.262,30.796
		c1.373,4.361,3.301,9.085-1.386,12.582c-4.489,3.349-8.302-0.104-11.759-2.363c-6.781-4.431-12.942-9.71-18.776-15.345
		c-9.127-8.815-18.414-17.459-28.513-25.161c-10.744-8.193-22.685-13.32-36.365-14.288c-3.019-0.214-4.504,0.325-5.505,3.077
		c-1.945,5.349-4.626,10.341-7.867,15.024c-1.574,2.275-2.439,4.894-2.823,7.531c-2.709,18.615-2.687,37.109,4.385,54.884
		c7.575,19.041,16.156,37.664,23.143,56.961c6.133,16.937,8.677,34.311,9.449,52.229c1.388,32.205-5.209,63.24-12.271,94.3
		c-6.626,29.139-13.945,58.143-18.483,87.72c-2.898,18.891-5.363,37.85-8.428,56.713c-3.238,19.928-7.045,39.763-10.448,59.665
		c-8.396,49.106-19.151,97.758-28.169,146.742c-3.509,19.062-6.614,38.199-9.811,57.317c-0.397,2.375-0.224,4.845-0.316,7.27
		C1136.479,2000,1133.777,2000,1131.075,2000z"/>
	<path style="fill:#010001;" d="M579.818,2000c3.476-22.218-0.063-44.07-3.901-65.813c-4.724-26.761-10.554-53.333-15.013-80.134
		c-2.557-15.369-4.307-30.902-5.703-46.477c-3.084-34.4-3.932-68.86-5.026-103.353c-1.118-35.232-3.604-70.443-10.811-105.13
		c-4.289-20.642-10.063-40.786-18.118-60.278c-1.277-3.091-3.354-6.129-2.226-9.836c3.66-0.307,4.045,2.662,5.067,4.595
		c9.26,17.507,15.613,36.087,20.068,55.342c6.757,29.207,10.199,58.815,11.691,88.752c1.195,23.96,2.123,47.927,3.201,71.888
		c0.798,17.73,2.347,35.446,4.064,53.142c1.64,16.897,3.849,33.688,6.438,50.447c3.166,20.496,7.587,40.751,11.91,61.017
		c6.042,28.318,9.745,56.814,8.088,85.838C586.303,2000,583.06,2000,579.818,2000z"/>
	<path style="fill:#010101;" d="M1435.887,2000c-2.789-8.341-2.085-17.156-2.674-25.668c-1.507-21.767-3.949-43.469-4.132-65.363
		c-0.228-27.253,5.191-53.179,16.698-77.608c15.303-32.487,24.919-66.491,30.764-101.793c3.208-19.376,7.432-38.583,11.195-57.867
		c0.248-1.271,0.205-2.692,2.543-3.673c1.728,4.164,0.935,8.344,0.373,12.3c-1.286,9.056-2.943,18.06-4.495,27.077
		c-3.516,20.419-6.317,40.953-10.967,61.186c-4.429,19.27-10.826,37.806-18.768,55.863c-8.159,18.552-15.426,37.353-17.818,57.722
		c-2.057,17.512-1.739,35.041-0.226,52.501c0.673,7.769,1.087,15.595,1.704,23.355c1.108,13.944,3.178,27.897,2.288,41.968
		C1440.211,2000,1438.049,2000,1435.887,2000z"/>
	<path style="fill:#3D3839;" d="M1244.502,1212.161c-1.505-2.749-3.009-5.497-4.791-8.752c3.728,0.536,4.957,3.177,6.661,5.217
		C1244.906,1209.359,1244.641,1210.727,1244.502,1212.161z"/>
	<path style="fill:#220B03;" d="M1102.685,463.346c11.141-0.742,22.18-0.608,32.071,5.643c2.956,1.868,6.21,3.458,8.7,5.834
		c8.481,8.091,18.79,12.783,29.848,15.434c17.543,4.206,33.333,12.136,48.786,21.002c5.371,3.082,10.639,6.346,16.04,9.371
		c15.181,8.502,26.939,20.396,35.86,35.293c6.5,10.854,13.429,21.45,20.027,32.246c11.739,19.207,21.131,39.148,23.946,62.025
		c1.366,11.101,1.049,21.345-3.408,31.455c-5.184,11.76-3.149,23.672-1.241,35.688c1.557,9.806,5.603,18.558,11.009,26.607
		c14.088,20.979,17.232,44.42,15.723,68.802c-0.488,7.894-3.358,14.681-15.117,13.534c-2.434-0.237-4.749-0.74-7.12-1.26
		c-7.058-1.549-11.759,0.935-15.486,7.229c-4.354,7.355-6.013,15.491-7.462,23.723c-2.654,15.086-3.141,30.405-4.89,45.589
		c-0.888,7.71-5.126,14.138-7.847,21.127c-5.597,14.378-8.352,29.427-11.741,44.365c-1.983,8.74-0.739,17.687-2.895,26.405
		c-0.999,4.039-2.053,8.027-4.571,11.068c-12.656,15.288-18.637,33.907-26.025,51.769c-2.612,6.315-5.721,12.343-9.554,17.73
		c-17.423,24.479-28.695,51.758-37.762,80.109c-3.148,9.843-7.544,19.086-13.378,27.552c-7.473,10.845-13.658,22.688-23.255,31.941
		c-11.362,10.955-24.484,19.379-39.029,25.494c-3.192,1.342-6.579,2.095-10.195,2.228c-15.172,0.557-30.008-1.033-44.779-4.73
		c-16.136-4.039-29.832-12.24-42.047-23.036c-4.236-3.744-8.771-7.111-12.931-10.956c-9.36-8.652-16.246-19.386-24.809-28.7
		c-5.452-5.93-10.267-12.447-15.74-18.355c-13.802-14.9-25.826-31.101-35.043-49.17c-14.211-27.859-26.9-56.421-37.54-85.861
		c-0.639-1.769-1.565-3.44-2.411-5.129c-9.453-18.88-13.819-38.962-13.398-59.978c0.23-11.493-2.046-22.414-5.092-33.347
		c-4.466-16.034-7.859-32.293-9.681-48.875c-0.969-8.821-3.175-17.448-5.701-25.938c-2.766-9.296-5.928-18.478-9.099-27.647
		c-1.778-5.14-4.644-9.805-8.192-13.861c-4.698-5.37-10.041-9.43-18.058-8.873c-6.6,0.459-7.631-0.85-7.463-7.411
		c0.244-9.511,3.674-18.402,6.067-27.473c3.907-14.814,6.932-29.728,8.691-45c1.416-12.292,1.439-24.648,2.969-36.912
		c2.622-21.02,3.989-42.234,10.972-62.502c1.154-3.349,2.591-6.519,4.184-9.631c8.344-16.304,16.35-32.741,23.401-49.677
		c6.181-14.847,17.149-26.196,30.551-34.699c17.603-11.168,36.42-19.944,57.109-23.845c8.151-1.537,16.468-2.171,24.663-3.5
		c14.726-2.389,28.412-8.066,42.094-13.714c20.458-8.447,41.702-14.376,63.279-19.01
		C1091.134,462.356,1097.016,463.346,1102.685,463.346z"/>
	<path style="fill:#DFA290;" d="M1197.534,1158.53c0,4.856,0.142,9.718-0.025,14.569c-0.655,18.965,1.076,37.748,3.76,56.498
		c3.022,21.116,1.604,42.057-3.857,62.644c-3.463,13.054-9.999,24.449-20.276,33.456c-5.626,4.93-11.966,7.969-19.657,8.526
		c-10.806,0.783-21.611,0.761-32.403,0.526c-17.821-0.388-35.628-1.375-53.447-1.904c-16.011-0.476-31.647-3.123-47.139-7.069
		c-11.5-2.93-23.074-5.603-34.683-8.068c-27-5.734-43.463-23.632-54.857-47.314c-2.563-5.327-4.371-11.035-6.312-16.642
		c-5.744-16.585-12.333-32.814-19.258-48.947c-8.201-19.107-15.154-38.674-17.293-59.621c-1.026-10.054-0.026-20.001,1.198-29.888
		c2.486-20.094,4.865-40.159,2.94-60.817c3.253,1.464,3.592,4.402,4.623,6.718c6.256,14.049,12.193,28.227,18.916,42.083
		c9.759,20.11,22.364,38.197,37.169,54.797c9.537,10.692,18.733,21.658,27.682,32.834c11.741,14.662,25.344,27.301,40.782,37.964
		c10.555,7.29,21.987,12.55,34.699,14.932c10.079,1.888,20.076,4.212,30.337,5.011c10.712,0.834,21.039-0.642,30.788-5.241
		c20.408-9.628,37.773-22.846,50.399-41.956C1180.81,1187.71,1190.687,1174.246,1197.534,1158.53z"/>
	<path style="fill:#4B4141;" d="M891.109,1080.179c-0.937,8.835-1.717,16.176-2.493,23.517c-1.242,11.762-3.539,23.534-3.43,35.283
		c0.114,12.298,2.461,24.527,6.225,36.463c5.203,16.495,12.005,32.289,18.813,48.144c5.628,13.106,10.105,26.708,15.015,40.119
		c3.536,9.657,7.469,19.077,14.051,27.166c2.229,2.739,3.28,5.998,4.231,9.459c2.872,10.456,4.737,20.947,4.61,31.859
		c-0.06,5.168-2.127,7.921-6.728,9.663c-4.342,1.644-8.94,2.945-13.354,2.846c-16.702-0.374-32.426,4.687-48.525,7.719
		c-16.63,3.133-33.088,7.594-50.231,7.185c-2.69-0.064-5.349-0.053-8.02-0.777c-5.425-1.47-8.559-4.441-10.04-10.228
		c-4.206-16.434-7.738-33.001-10.671-49.689c-2.426-13.798-6.031-27.319-9.01-40.985c-4.285-19.652-5.484-39.544-3.97-59.477
		c0.964-12.696,5.307-24.722,11.746-35.837c0.943-1.627,1.863-3.48,3.293-4.578c10.034-7.711,16.977-18.083,23.934-28.291
		c11.42-16.756,26.941-28.422,44.372-38.028C877.059,1088.335,883.088,1084.772,891.109,1080.179z"/>
	<path style="fill:#4B4141;" d="M1297.15,1351.51c-7.507-3.829-12.936-9.037-18.565-13.917c-9.769-8.469-19.228-17.299-29.1-25.643
		c-7.46-6.306-16.099-10.71-25.319-14.012c-4.703-1.684-9.515-1.615-14.363-1.769c-5.801-0.184-6.054-0.547-4.942-6.094
		c2.813-14.026,4.231-28.167,4.086-42.494c-0.12-11.885-1.846-23.618-3.6-35.281c-1.54-10.241-1.202-20.426-1.408-30.642
		c-0.198-9.842-0.043-19.692-0.043-30.483c2.976,2.241,3.479,4.695,4.546,6.722c3.141,5.961,5.523,12.393,9.755,17.685
		c11.127,13.913,16.667,30.579,22.898,46.794c7.05,18.345,12.843,37.155,21.136,55.05c6.018,12.987,13.177,25.342,19.89,37.945
		c4.82,9.049,9.512,18.143,13.298,27.687C1296.417,1345.574,1296.754,1348.123,1297.15,1351.51z"/>
	<path style="fill:#DFA290;" d="M869.852,957.304c0.117,4.11-0.379,8.149-1.935,11.931c-1.698,4.127-4.2,5.052-8.44,3.507
		c-3.376-1.23-6.102-3.437-8.615-5.922c-5.216-5.16-9.697-10.934-13.347-17.269c-20.74-36.004-32.819-74.443-32.408-116.352
		c0.062-6.264,0.796-12.42,3.225-18.229c4.699-11.238,13.567-13.107,22.162-4.667c6.503,6.387,10.473,14.326,13.512,22.799
		c6.32,17.625,9.817,35.918,12.358,54.373c1.774,12.889,4.945,25.416,8.283,37.925C867.442,935.878,869.02,946.526,869.852,957.304z
		"/>
	<path style="fill:#DFA290;" d="M1329.256,856.56c-1.123,16.877-4.539,33.584-10.125,50.098
		c-8.666,25.619-19.786,50.069-32.109,74.047c-1.476,2.871-2.996,5.741-4.765,8.434c-1.282,1.952-2.783,4.397-5.722,3.102
		c-2.503-1.102-1.753-3.518-1.673-5.682c0.549-14.93,4.079-29.314,7.81-43.669c1.97-7.581,4.498-14.971,7.867-22.037
		c4.831-10.135,7.133-20.752,7.6-31.984c0.549-13.197,2.394-26.301,5.059-39.247c0.808-3.925,2.199-7.788,3.793-11.476
		c1.675-3.874,4.238-6.814,9.252-6.222c5.073,0.598,9.315,1.755,11.234,7.415C1329.358,844.889,1329.005,850.5,1329.256,856.56z"/>
	<path style="fill:#010001;" d="M881.398,863.454c0-16.638-0.456-29.628,0.141-42.57c0.496-10.74,0.735-21.554,1.805-32.203
		c1.74-17.322,5.067-34.464,9.278-51.431c6.275-25.281,11.753-50.76,18.002-76.048c3.237-13.099,7.429-25.859,17.923-35.53
		c4.001-3.687,8.544-6.276,13.539-6.616c8.554-0.582,17.163-0.819,25.804,0.536c11.115,1.744,22.302,2.861,33.363,5.18
		c16.16,3.389,31.416,9.392,46.844,14.933c6.076,2.182,11.971,4.867,17.964,7.286c12.7,5.126,22.762,14.27,33.535,22.262
		c19.332,14.344,40.329,20.696,64.478,16.252c14.857-2.734,29.302-6.581,43.573-11.458c11.926-4.076,23.786-8.768,36.789-8.359
		c8.62,0.271,11.741,2.613,14.852,10.909c3.913,10.433,4.811,21.397,6.526,32.272c2.178,13.809,2.255,27.8,4.455,41.578
		c0.169,1.061,0.176,2.151,0.224,3.228c0.999,22.619,2.116,45.228,1.71,67.89c-0.173,9.667,2.299,19.225,2.6,28.802
		c0.386,12.267,2.35,24.319,1.27,36.911c-1.595,18.593-5.14,36.681-8.947,54.764c-3.375,16.027-7.185,32.165-14.273,46.973
		c-6.18,12.911-14.459,25.322-27.849,31.534c-21.116,9.796-33.542,25.885-40.868,47.429c-5.895,17.336-11.547,34.749-17.217,52.152
		c-8.243,25.298-25.166,41.928-49.446,51.921c-10.321,4.247-20.855,7.13-31.979,7.576c-18.161,0.728-34.224-5.51-49.561-14.704
		c-21.543-12.914-35.607-32.389-48.319-53.238c-7.325-12.014-12.771-24.987-19.491-37.296c-6.839-12.529-13.11-25.533-21.385-37.07
		c-10.153-14.154-21.574-27.445-36.658-37.091c-14.635-9.359-20.864-24.19-23.745-40.553c-2.661-15.117-2.428-30.527-3.749-45.745
		C881.009,895.825,882.348,877.809,881.398,863.454z"/>
	<path style="fill:#DFA290;" d="M888.09,859.326c-0.426-22.416-0.218-44.826,1.429-67.194c1.172-15.916,4.076-31.556,7.788-47.066
		c6.591-27.537,13.068-55.1,19.634-82.643c1.755-7.363,4.182-14.486,7.607-21.28c6.008-11.917,15.493-17.302,28.873-16.612
		c27.386,1.413,54.065,6.086,80.073,15.037c19.311,6.646,37.38,15.386,53.63,27.775c3.86,2.943,7.459,6.236,11.386,9.081
		c23.107,16.742,48.597,20.951,76.169,14.452c13.149-3.1,26.09-6.846,38.795-11.422c7.625-2.746,15.36-5.146,23.3-6.765
		c11.312-2.307,14.557-0.335,17.584,10.861c4.884,18.066,6.209,36.672,8.127,55.19c2.953,28.518,2.625,57.153,3.339,85.754
		c0.188,7.543,0.619,15.157,1.873,22.581c3.974,23.537,2.069,46.752-2.393,69.993c-3.719,19.368-8.727,38.374-14.121,57.326
		c-4.166,14.635-13.217,25.775-23.671,36.116c-2.52,2.493-5.707,4.08-8.946,5.456c-18.221,7.744-29.931,21.565-37.26,39.582
		c-6.923,17.018-12.103,34.625-17.823,52.049c-0.757,2.307-1.501,4.619-2.206,6.942c-9.798,32.283-32.936,49.5-64.581,56.939
		c-15.91,3.74-31.257,1.098-45.69-5.921c-18.244-8.873-33.802-21.165-45.221-38.273c-9.301-13.935-18.199-28.097-25.247-43.333
		c-5.671-12.262-12.307-24.007-18.766-35.856c-7.961-14.604-18.372-27.286-29.705-39.306c-3.916-4.153-8.324-7.759-13.187-10.684
		c-15.843-9.53-23.223-24.278-26.097-41.819c-3.457-21.103-4.271-42.414-4.656-63.742C887.925,881.476,888.09,870.4,888.09,859.326z
		"/>
	<path style="fill:#030102;" d="M1076.816,967.62c3.827,0.431,11.408,0.831,18.811,2.2c27.748,5.13,53.911,15.133,79.521,26.682
		c3.166,1.428,6.205,3.34,8.928,5.499c5.09,4.035,6.022,8.568,3.071,14.346c-3.434,6.724-8.922,10.674-16.588,11.292
		c-8.002,0.645-15.574-1.144-22.818-4.35c-4.434-1.962-8.812-4.098-13.045-6.461c-7.633-4.26-15.695-7.01-24.365-8.236
		c-29.261-4.14-58.142-2.841-86.416,6.169c-8.718,2.778-17.147,6.453-25.749,9.608c-8.537,3.132-15.931,0.67-22.428-5.107
		c-7.031-6.252-7.168-14.626-0.385-21.171c3.736-3.605,8.343-5.93,13.003-8.087c17.695-8.191,36.097-14.224,55.266-17.842
		C1053.403,970.314,1062.994,967.236,1076.816,967.62z"/>
	<path style="fill:#220B03;" d="M1073.46,973.832c15.452-0.74,29.481,2.979,43.511,6.778c17.993,4.872,35.096,12.102,52.151,19.469
		c1.732,0.748,3.453,1.578,5.046,2.582c3.8,2.393,8.672,4.137,8.433,9.767c-0.166,3.909-8.288,9.652-13.6,9.921
		c-8.011,0.406-15.437-1.998-22.583-5.284c-6.59-3.031-12.527-7.337-19.475-9.728c-7.164-2.465-14.379-4.229-22.015-4.451
		c-11.287-0.327-22.486-2.065-33.846-1.631c-20.628,0.789-40.452,4.944-59.537,12.797c-5.209,2.143-10.482,4.092-15.887,5.794
		c-7.453,2.348-12.618-1.09-17.508-5.425c-3.883-3.441-3.826-7.457-0.354-11.364c4.573-5.146,10.408-8.587,16.706-11.107
		c19.003-7.605,38.736-12.65,58.794-16.592C1060.235,973.996,1067.149,973.436,1073.46,973.832z"/>
</g>
</svg>
